<svg t="1782714753590" class="icon" viewBox="0 0 1024 1024" version="1.1" xmlns="http://www.w3.org/2000/svg" p-id="3539" width="256" height="256"><path d="M458.24 798.72a13.9264 13.9264 0 0 1-2.60096-0.24576 290.54976 290.54976 0 0 1-229.9904-223.10912 13.98784 13.98784 0 0 1 17.8176-16.46592 13.96736 13.96736 0 0 1 9.4208 10.42432 262.69696 262.69696 0 0 0 207.93344 201.64608 13.98784 13.98784 0 0 1-2.58048 27.7504zM733.75744 510.27968c0-122.18368-99.2256-221.5936-221.184-221.5936-121.97888 0-221.22496 99.40992-221.22496 221.5936s99.2256 221.57312 221.20448 221.57312 221.184-99.38944 221.184-221.5936z m-221.184 185.99936c-102.4 0-185.67168-83.456-185.67168-185.99936 0-102.56384 83.2512-186.01984 185.6512-186.01984 102.4 0 185.69216 83.43552 185.69216 186.01984 0 102.56384-83.31264 185.99936-185.69216 185.99936z" p-id="3540"></path><path d="M455.2704 252.928a13.98784 13.98784 0 0 0-6.02112-27.29984 290.65216 290.65216 0 0 0-222.74048 230.4 14.0288 14.0288 0 0 0 13.7216 16.56832 13.98784 13.98784 0 0 0 13.7216-11.40736 262.69696 262.69696 0 0 1 201.3184-208.2816zM568.75008 252.928a262.71744 262.71744 0 0 1 201.3184 208.2816 13.94688 13.94688 0 1 0 27.4432-5.18144 290.6112 290.6112 0 0 0-222.69952-230.4 13.96736 13.96736 0 0 0-6.0416 27.27936zM796.52864 564.8384a13.86496 13.86496 0 0 0-11.79648-6.47168 13.86496 13.86496 0 0 0-13.59872 10.9568A262.69696 262.69696 0 0 1 563.2 770.9696a14.00832 14.00832 0 0 0 5.16096 27.52512 290.57024 290.57024 0 0 0 230.01088-223.1296 13.9264 13.9264 0 0 0-1.8432-10.52672z" p-id="3541"></path></svg>